<svg width="26" height="20" viewBox="0 0 26 20" fill="none" xmlns="http://www.w3.org/2000/svg">
<path d="M22.0109 1.72603C20.325 0.952319 18.546 0.400106 16.7183 0.08316C16.7017 0.0803713 16.6847 0.0827798 16.6696 0.0900545C16.6544 0.0973292 16.6419 0.109113 16.6338 0.123785C16.4046 0.530035 16.1511 1.06141 15.974 1.47741C14.0039 1.17842 11.9999 1.17842 10.0298 1.47741C9.83219 1.01399 9.60867 0.562069 9.36027 0.123785C9.35194 0.109273 9.3394 0.0976257 9.32432 0.0903743C9.30924 0.083123 9.29231 0.080608 9.27577 0.08316C7.44765 0.39841 5.66827 0.95091 3.98315 1.72603C3.96873 1.73154 3.95667 1.74188 3.94902 1.75528C0.578775 6.79116 -0.345851 11.7035 0.107524 16.5542C0.109149 16.5769 0.123774 16.5997 0.141649 16.6143C2.1042 18.068 4.29936 19.178 6.63352 19.8968C6.65 19.902 6.66771 19.9018 6.68408 19.8962C6.70044 19.8907 6.71461 19.8801 6.72452 19.8659C7.22502 19.1834 7.67027 18.4635 8.05377 17.7063C8.06177 17.6907 8.0645 17.6729 8.06158 17.6556C8.05865 17.6384 8.05021 17.6225 8.03752 17.6104C8.02913 17.6025 8.01916 17.5964 8.00827 17.5925C7.30816 17.3235 6.6301 17.0002 5.98027 16.6257C5.96212 16.6154 5.94863 16.5985 5.94257 16.5785C5.93652 16.5586 5.93839 16.537 5.94777 16.5184C5.9533 16.5063 5.96166 16.4957 5.97215 16.4875C6.10865 16.3852 6.24515 16.2779 6.37515 16.1707C6.38663 16.1614 6.40041 16.1555 6.41501 16.1535C6.42961 16.1515 6.44448 16.1535 6.45802 16.1593C10.7139 18.1028 15.3208 18.1028 19.5247 16.1593C19.5387 16.1532 19.5541 16.1511 19.5693 16.1531C19.5845 16.1551 19.5988 16.1611 19.6108 16.1707C19.7408 16.2779 19.8773 16.3852 20.0138 16.4875C20.0248 16.4956 20.0337 16.5063 20.0396 16.5187C20.0455 16.531 20.0483 16.5447 20.0477 16.5583C20.047 16.572 20.043 16.5853 20.0359 16.5971C20.0289 16.6088 20.019 16.6187 20.0073 16.6257C19.3589 17.0036 18.68 17.3265 17.9776 17.5909C17.9664 17.595 17.9563 17.6014 17.9478 17.6099C17.9394 17.6183 17.933 17.6285 17.9289 17.6397C17.9251 17.6505 17.9236 17.662 17.9245 17.6735C17.9253 17.6849 17.9285 17.6961 17.9338 17.7063C18.3238 18.4619 18.7706 19.1834 19.2614 19.8659C19.2713 19.8801 19.2855 19.8907 19.3018 19.8962C19.3182 19.9018 19.3359 19.902 19.3524 19.8968C21.6905 19.1802 23.8892 18.0701 25.854 16.6143C25.8639 16.6075 25.872 16.5985 25.878 16.5881C25.8839 16.5777 25.8873 16.5661 25.8881 16.5542C26.4309 10.9463 24.9798 6.07453 22.0434 1.75691C22.0404 1.74978 22.036 1.74335 22.0304 1.73803C22.0248 1.73271 22.0182 1.72862 22.0109 1.72603ZM8.68915 13.5999C7.40702 13.5999 6.3524 10.9804 6.3524 10.9804C6.3524 9.53578 7.38752 8.35928 8.68915 8.35928C10.0005 8.35928 11.0454 9.54553 11.0259 10.9804C11.0259 12.4234 9.99077 13.5999 8.68915 13.5999ZM17.3277 13.5999C16.0471 13.5999 14.9909 12.4234 14.9909 10.9804C14.9909 9.53578 16.026 8.35928 17.3277 8.35928C18.639 8.35928 19.6855 9.54553 19.6644 10.9804C19.6644 12.4234 18.639 13.5999 17.3277 13.5999Z" fill="#02B1B1"/>
</svg>
