<svg width="26" height="22" viewBox="0 0 26 22" fill="none" xmlns="http://www.w3.org/2000/svg">
<path d="M8.16725 21.3761C17.979 21.3761 23.3464 13.2463 23.3464 6.20838C23.3464 5.98088 23.3464 5.75013 23.3366 5.52263C24.3816 4.76617 25.2835 3.82962 26 2.75688C25.0239 3.18726 23.9895 3.47091 22.9304 3.59863C24.046 2.93179 24.8815 1.88258 25.2817 0.646001C24.2336 1.26695 23.0864 1.70286 21.8904 1.93463C21.0863 1.07829 20.0223 0.510993 18.8631 0.320607C17.704 0.130222 16.5144 0.327374 15.4787 0.881524C14.4429 1.43568 13.6188 2.3159 13.134 3.38585C12.6492 4.4558 12.5307 5.65577 12.7969 6.79988C10.6758 6.69352 8.60083 6.14251 6.70644 5.18258C4.81206 4.22265 3.14061 2.87525 1.8005 1.22775C1.12018 2.40276 0.912557 3.79265 1.2198 5.11518C1.52704 6.43771 2.32611 7.59374 3.45475 8.3485C2.609 8.31977 1.78185 8.09266 1.04 7.6855V7.75863C1.04146 8.98953 1.46787 10.1822 2.24717 11.135C3.02647 12.0878 4.11084 12.7423 5.317 12.9879C4.85918 13.114 4.38625 13.1769 3.91138 13.1748C3.5766 13.1758 3.24249 13.1447 2.91363 13.0821C3.25453 14.1417 3.91832 15.0681 4.81203 15.7317C5.70573 16.3952 6.78459 16.7625 7.8975 16.7823C6.0069 18.2672 3.67153 19.0725 1.2675 19.0686C0.843896 19.0704 0.420588 19.046 0 18.9955C2.43996 20.5511 5.27361 21.377 8.16725 21.3761Z" fill="#02B1B1"/>
</svg>
